# xmcd
# 
# Track frame offsets:
#     150
#     23604
#     41927
#     63183
#     85944
#     104936
#     127317
#     151854
#     174329
#     195230
#     216336
#     237216
#     256285
#     277443
#     301886
#     318837
# 
# Disc length: 4489
# 
# Revision: 1
# Processed by: cddbd v1.5.2PL0 Copyright (c) Steve Scherf et al.
# Submitted via: fre:ac v1.0.31
# 
DISCID=e4118710
DTITLE=Emmanuel - Amor Total... Lo Mejor De Mí
DYEAR=2007
DGENRE=Pop
TTITLE0=Amor Total
TTITLE1=Corazón De Melao
TTITLE2=Mi Mujer
TTITLE3=La Fuerza De La Vida
TTITLE4=Piel Canela
TTITLE5=Maldito Miedo
TTITLE6=Corazones
TTITLE7=Sentirme Vivo
TTITLE8=Fragilidad
TTITLE9=Y Ahora Tu
TTITLE10=Fuego y Miel
TTITLE11=Vida
TTITLE12=Suavecito
TTITLE13=Mátame
TTITLE14=Quizás, Quizás, Quizás
TTITLE15=La Intrusa
EXTD=
EXTT0=
EXTT1=
EXTT2=
EXTT3=
EXTT4=
EXTT5=
EXTT6=
EXTT7=
EXTT8=
EXTT9=
EXTT10=
EXTT11=
EXTT12=
EXTT13=
EXTT14=
EXTT15=
PLAYORDER=
